<?xml version="1.0" standalone="no"?>
<!DOCTYPE svg PUBLIC "-//W3C//DTD SVG 20010904//EN"
 "http://www.w3.org/TR/2001/REC-SVG-20010904/DTD/svg10.dtd">
<svg version="1.0" xmlns="http://www.w3.org/2000/svg"
 width="500.000000pt" height="500.000000pt" viewBox="0 0 500.000000 500.000000"
 preserveAspectRatio="xMidYMid meet">
<metadata>
Created by potrace 1.11, written by Peter Selinger 2001-2013
</metadata>
<g transform="translate(0.000000,500.000000) scale(0.100000,-0.100000)"
fill="#000000" stroke="none">
<path d="M2310 4720 c-368 -33 -732 -157 -1019 -348 -498 -330 -836 -820 -965
-1397 -88 -398 -62 -819 75 -1230 68 -202 236 -497 382 -673 92 -109 277 -288
375 -360 310 -230 645 -369 1027 -428 151 -23 461 -23 610 0 341 53 643 167
911 345 533 354 876 889 981 1533 26 160 24 523 -5 688 -67 391 -213 719 -463
1040 -87 112 -225 253 -329 336 -41 32 -82 65 -90 73 -32 31 -201 135 -310
190 -114 58 -247 109 -410 158 -231 68 -516 95 -770 73z m450 -35 c203 -25
451 -92 591 -160 74 -35 177 -112 251 -187 469 -475 409 -1259 -128 -1668 -94
-71 -268 -154 -389 -186 -84 -22 -123 -27 -245 -28 -87 0 -177 5 -224 13 l-79
14 6 181 c7 227 17 276 65 315 45 38 106 51 239 51 92 0 104 -2 93 -15 -18
-22 -6 -42 29 -47 36 -5 41 12 12 41 -17 17 -17 20 -4 25 8 3 24 6 36 6 12 0
46 11 75 25 62 29 69 30 53 11 -7 -8 -11 -27 -9 -43 3 -26 7 -28 58 -35 30 -3
56 -5 58 -3 9 9 -33 68 -60 85 l-31 19 59 18 c43 13 91 18 179 18 66 0 107 2
90 5 -20 4 -26 8 -17 13 6 5 12 19 12 33 0 29 -33 69 -49 59 -18 -10 -13 -25
9 -25 22 0 27 -15 9 -26 -6 -3 -9 -15 -6 -25 5 -17 -1 -19 -63 -19 -48 0 -67
4 -66 13 0 6 -3 13 -9 15 -5 1 -10 -4 -10 -10 0 -30 -50 -39 -59 -10 -4 13 -4
13 -3 -3 2 -16 -7 -22 -43 -32 -26 -6 -46 -8 -48 -2 -2 5 -8 9 -14 9 -6 0 -8
-6 -5 -14 4 -10 -9 -20 -41 -34 -51 -21 -74 -23 -259 -25 l-122 -2 26 27 c23
24 27 25 40 12 9 -8 18 -12 22 -9 3 4 -2 13 -12 20 -18 13 -18 14 2 25 17 8
21 8 19 -2 -2 -7 8 -14 22 -16 23 -3 24 -3 8 14 -15 15 -15 18 0 34 30 31 82
53 97 40 9 -8 15 -8 20 0 3 5 0 10 -7 10 -7 0 -5 5 6 11 14 9 20 8 26 -1 6 -9
13 -9 31 1 15 7 19 14 11 17 -6 2 -10 8 -7 13 4 5 -1 6 -9 3 -9 -3 -13 -11 -9
-17 4 -6 0 -8 -11 -4 -9 4 -41 -4 -72 -18 -31 -14 -58 -25 -59 -25 -2 0 -1 9
2 20 4 16 2 19 -11 14 -18 -7 -22 -30 -5 -36 6 -2 -7 -16 -30 -31 -40 -27 -41
-27 -41 -6 0 19 -2 20 -16 8 -15 -12 -15 -14 -1 -23 13 -8 8 -17 -31 -50 -40
-36 -100 -71 -108 -63 -1 1 11 26 28 55 25 43 33 51 44 41 11 -9 18 -9 26 -1
8 8 6 13 -10 19 -20 8 -19 12 35 98 81 131 109 163 150 174 42 12 123 3 120
-13 -1 -6 9 -12 23 -14 20 -3 22 -2 12 11 -10 12 4 16 96 25 114 12 192 34
276 80 l52 28 -4 -28 c-5 -33 9 -41 64 -36 l37 3 -27 33 c-15 17 -35 32 -44
32 -10 0 11 25 50 61 74 66 179 214 184 259 4 34 -20 60 -30 33 -5 -11 -1 -22
9 -29 14 -11 15 -16 3 -36 -13 -23 -13 -23 -16 10 -4 35 -13 40 -32 17 -15
-18 -6 -45 15 -45 22 0 19 -8 -26 -67 -43 -55 -53 -62 -63 -40 -4 6 -4 2 -2
-11 3 -17 -8 -32 -49 -67 -57 -49 -65 -53 -65 -29 0 8 -5 12 -10 9 -8 -5 -7
-11 0 -20 9 -11 3 -18 -29 -35 -33 -16 -41 -18 -41 -6 0 22 -19 30 -27 11 -3
-10 -1 -20 6 -24 7 -5 2 -12 -15 -20 -24 -11 -26 -10 -15 3 10 11 10 23 0 55
-14 46 -28 43 -49 -10 -11 -25 -10 -32 4 -48 17 -18 15 -19 -34 -30 -78 -17
-84 -16 -64 14 14 22 14 25 1 25 -26 0 -47 -12 -47 -26 0 -8 6 -14 13 -14 8 0
7 -4 -3 -10 -8 -5 -44 -10 -79 -10 l-63 0 33 40 c19 21 44 52 56 67 17 22 22
24 23 11 0 -19 15 -24 25 -9 3 6 -3 14 -12 20 -17 9 -17 11 2 25 18 13 20 13
23 -3 2 -9 12 -22 22 -29 18 -11 20 -9 20 13 0 14 -7 28 -15 31 -8 4 -12 11
-8 18 9 14 -44 -19 -75 -48 -17 -15 -22 -16 -17 -4 4 9 1 19 -5 23 -18 11 -25
-4 -12 -26 11 -17 9 -25 -14 -55 -34 -43 -107 -84 -103 -56 3 18 -2 32 -11 32
-5 0 -10 -8 -10 -19 0 -14 -10 -21 -37 -26 -64 -12 -91 -33 -146 -111 -41 -60
-53 -71 -55 -54 -4 24 -20 22 -36 -4 -9 -13 -7 -20 7 -30 16 -13 11 -24 -70
-160 l-88 -146 -3 52 c-5 74 16 188 33 182 7 -3 16 -1 20 5 3 6 -1 11 -9 11
-9 0 -16 2 -16 5 0 26 113 193 131 195 4 0 9 -9 12 -20 7 -27 39 -25 66 4 l23
24 -31 7 c-17 3 -35 4 -41 0 -5 -3 -10 -4 -10 -1 0 8 82 83 184 169 111 93
185 184 235 290 47 96 70 183 76 275 l4 67 -9 -64 c-19 -136 -67 -257 -145
-366 -49 -68 -97 -115 -202 -198 -80 -63 -77 -65 -89 35 -9 80 2 152 23 144
18 -7 56 22 47 36 -3 5 -15 6 -26 2 -18 -5 -20 -3 -15 22 l6 29 -13 -29 c-8
-18 -16 -24 -20 -17 -11 17 -36 14 -30 -4 4 -8 13 -15 21 -15 10 0 13 -6 8
-17 -4 -10 -9 -44 -12 -75 -4 -42 -9 -55 -19 -51 -9 3 -14 -2 -14 -12 0 -11 5
-15 15 -11 8 3 15 2 15 -2 0 -4 3 -17 6 -28 5 -19 2 -21 -21 -16 -25 4 -26 3
-16 -16 7 -13 17 -19 26 -16 35 14 10 -29 -51 -88 -37 -35 -83 -84 -104 -109
l-37 -47 -21 83 c-27 100 -29 133 -8 116 11 -9 20 -10 36 -1 26 14 17 30 -17
30 -22 0 -24 3 -19 28 5 20 4 23 -4 12 -5 -8 -10 -24 -10 -35 0 -37 -18 0 -34
72 -19 85 -20 104 -5 100 6 -1 14 4 16 12 4 9 0 11 -16 6 -17 -5 -21 -2 -21
14 0 12 7 21 15 21 8 0 15 5 15 10 0 6 -7 10 -16 10 -14 0 -16 11 -12 69 l4
69 76 80 c42 44 84 91 93 105 14 22 20 24 34 15 14 -8 23 -7 40 5 l23 15 -22
7 c-12 4 -27 1 -35 -5 -17 -14 -19 -6 -5 20 7 12 17 17 32 13 21 -4 21 -3 6 9
-11 10 -14 19 -7 29 14 22 11 37 -11 59 -28 28 -40 25 -31 -7 5 -19 14 -27 24
-25 16 3 16 0 0 -33 -11 -24 -20 -32 -27 -25 -14 14 -26 12 -26 -5 0 -8 5 -15
10 -15 19 0 10 -18 -36 -69 -41 -46 -47 -49 -61 -35 -20 19 -28 12 -14 -14 8
-16 3 -26 -34 -62 -49 -48 -65 -94 -65 -188 0 -58 0 -59 -26 -54 -24 4 -25 3
-14 -17 8 -17 15 -20 24 -12 17 15 26 4 26 -32 0 -28 -1 -29 -18 -14 -9 8 -30
21 -46 26 -24 10 -27 9 -22 -5 3 -8 6 -24 6 -34 0 -20 25 -50 41 -50 5 0 17 9
26 20 16 19 18 14 44 -118 34 -166 32 -153 13 -145 -12 4 -15 2 -12 -8 3 -8
12 -13 21 -13 12 1 17 -13 22 -61 12 -111 -16 -141 -52 -55 -12 28 -17 50 -12
50 5 0 9 5 9 11 0 6 -6 9 -12 7 -7 -3 -26 14 -42 36 -15 23 -54 68 -85 100
-31 32 -50 56 -43 52 19 -11 27 23 9 41 -14 15 -16 14 -23 -11 -6 -26 -7 -26
-25 -10 -23 20 -26 56 -5 48 9 -3 19 4 26 17 11 20 10 21 -14 15 -27 -7 -29
-4 -20 31 4 13 11 20 20 16 9 -3 14 1 14 12 0 11 -5 15 -15 11 -12 -4 -15 3
-16 32 -1 20 -5 48 -9 62 -8 24 -8 24 -9 3 -1 -13 -4 -22 -8 -22 -17 3 -24 -2
-18 -11 5 -8 12 -7 22 2 15 12 15 4 9 -77 -4 -49 -10 -93 -12 -97 -8 -13 -160
110 -229 185 -98 105 -170 258 -195 415 l-9 57 4 -60 c6 -85 30 -168 74 -260
53 -112 120 -195 225 -284 121 -101 267 -243 289 -280 16 -28 16 -31 2 -31 -9
0 -13 -5 -10 -11 4 -6 13 -8 21 -5 8 3 20 -6 29 -24 19 -36 19 -40 0 -40 -8 0
-15 -5 -15 -11 0 -6 9 -9 19 -6 15 3 20 -2 25 -25 9 -43 7 -178 -2 -178 -4 0
-43 59 -86 131 -68 114 -76 133 -62 141 21 12 20 22 -1 44 -17 16 -18 16 -23
-6 -5 -22 -8 -19 -38 27 -18 28 -53 70 -77 92 -38 35 -51 41 -88 41 -43 0 -44
1 -39 28 5 24 3 26 -11 13 -9 -7 -14 -17 -11 -22 9 -15 -20 -10 -52 10 -17 11
-46 40 -64 65 -18 25 -45 53 -59 62 -24 15 -24 14 5 -17 17 -19 45 -55 62 -81
18 -25 37 -49 44 -51 7 -3 -23 -6 -66 -6 -62 -1 -77 2 -68 11 17 17 15 26 -8
38 -30 16 -45 2 -24 -21 16 -18 16 -19 -4 -19 -11 0 -43 5 -71 12 -47 11 -49
12 -31 25 25 18 25 27 -2 71 l-22 35 -13 -39 c-7 -21 -11 -44 -9 -51 9 -22
-17 -14 -83 25 -94 55 -160 117 -155 145 4 17 3 18 -4 4 -7 -16 -10 -15 -33
10 -15 15 -43 53 -64 83 -43 63 -53 75 -35 40 33 -65 88 -140 143 -197 58 -60
60 -64 41 -78 -19 -14 -18 -14 3 -15 12 0 23 6 26 13 4 10 7 10 18 0 11 -11
10 -13 -3 -13 -15 0 -68 -53 -68 -69 0 -4 21 -4 48 -1 45 5 47 6 47 36 l0 31
35 -23 c80 -53 241 -94 368 -94 43 0 45 -1 26 -15 -18 -15 -18 -15 6 -13 14 2
24 9 23 16 -2 8 17 12 66 12 l69 0 43 -47 c36 -41 222 -334 215 -340 -8 -9
-79 29 -110 59 -31 31 -42 36 -57 27 -22 -12 -25 -29 -5 -29 8 0 16 7 18 16 2
12 9 9 31 -13 l27 -29 -152 2 c-198 3 -181 0 -259 35 -38 16 -81 32 -97 35
-24 5 -29 10 -25 28 4 20 4 20 -10 4 -20 -25 -57 -24 -50 1 3 10 0 22 -7 26
-7 4 -14 -1 -17 -14 -5 -18 -14 -21 -67 -23 -41 -1 -48 -2 -21 -5 120 -9 195
-27 280 -66 l90 -41 172 -6 c156 -6 175 -9 219 -31 27 -14 56 -39 66 -56 23
-39 43 -236 33 -328 l-7 -66 -41 7 c-72 13 -268 6 -352 -11 -402 -84 -720
-363 -847 -745 -44 -131 -52 -187 -53 -355 0 -184 14 -260 76 -421 54 -137
141 -268 257 -382 85 -85 91 -92 52 -72 -313 160 -638 469 -835 795 -112 186
-205 414 -254 625 -50 210 -56 269 -55 515 0 263 17 392 80 613 46 160 86 258
164 402 238 441 545 739 985 955 228 113 474 186 720 213 129 15 371 13 505
-3z m-340 -2275 c1 9 5 5 11 -10 7 -17 12 -21 18 -12 5 9 11 5 20 -12 12 -22
14 -23 32 -8 11 9 19 23 20 32 0 10 3 9 9 -5 l9 -20 2 20 c1 11 5 -7 9 -40 20
-165 39 -218 86 -236 15 -5 77 -7 147 -3 96 5 134 3 177 -9 30 -9 103 -21 161
-26 74 -7 131 -20 190 -41 46 -17 100 -35 119 -40 23 -5 28 -8 13 -9 -13 -1
-69 15 -125 35 -80 28 -127 37 -208 43 -58 4 -106 7 -108 6 -9 -7 203 -155
221 -155 12 0 55 -9 95 -20 39 -11 82 -21 94 -21 l23 -2 -22 -4 c-12 -2 -57 5
-98 17 -42 12 -79 20 -81 17 -6 -6 136 -98 217 -142 94 -51 61 -43 -45 11
-102 52 -248 144 -379 242 -95 70 -140 83 -224 67 -32 -6 -35 -9 -18 -15 28
-12 4 -12 -31 -1 -49 16 -174 20 -174 6 0 -10 56 -66 162 -161 50 -45 81 -64
151 -91 34 -13 49 -21 32 -18 -60 12 -152 64 -227 129 -43 37 -78 63 -78 57 0
-5 21 -38 48 -73 56 -74 163 -158 240 -187 96 -37 532 -224 529 -227 -1 -2
-90 32 -197 75 -315 125 -286 115 -269 94 8 -9 23 -27 34 -38 69 -71 66 -77
-5 -9 -53 51 -99 86 -122 93 -53 17 -168 101 -222 163 -53 60 -106 156 -147
267 -38 103 -36 70 5 -91 91 -352 260 -619 491 -773 33 -21 65 -43 70 -48 15
-14 -56 23 -87 44 -37 26 -39 24 -18 -18 34 -72 31 -87 -4 -18 -22 44 -57 92
-93 127 l-58 58 -26 -33 -26 -33 38 -64 c52 -86 49 -95 -7 -21 -25 34 -50 59
-54 56 -19 -12 -44 -113 -43 -177 1 -50 8 -82 27 -124 26 -57 26 -57 3 -32
-23 24 -47 120 -47 186 0 57 38 157 75 196 19 21 35 41 35 45 0 17 -120 181
-132 181 -4 0 -8 7 -8 15 0 9 -12 34 -26 57 -39 61 -82 159 -124 282 l-38 109
-17 -59 -17 -59 42 -180 c54 -229 60 -320 31 -440 -12 -49 -27 -97 -32 -106
-5 -10 -16 -58 -24 -106 l-14 -88 5 75 c3 41 14 101 25 133 34 102 26 102 -85
-4 -65 -61 -94 -97 -121 -151 -19 -39 -35 -65 -35 -59 0 23 53 120 90 165 21
25 67 71 103 102 79 68 92 106 76 219 -9 64 -37 186 -44 193 -2 2 -12 -17 -24
-42 -11 -25 -22 -46 -25 -46 -3 0 4 19 14 43 25 54 25 89 -1 166 l-21 63 -57
-54 c-31 -30 -76 -71 -101 -92 l-45 -37 -2 -107 c-4 -169 -6 -209 -10 -184 -4
23 -23 31 -23 10 0 -6 -2 -9 -5 -7 -2 3 4 29 15 57 20 53 24 104 12 180 l-7
43 -90 -61 c-100 -68 -169 -131 -222 -203 -49 -66 -102 -201 -113 -289 l-9
-73 4 78 5 79 -34 -30 c-19 -16 -60 -39 -91 -51 -77 -29 -93 -26 -21 4 95 39
125 69 191 195 70 135 145 220 274 312 216 154 299 241 331 346 20 66 37 212
23 197 -6 -5 -61 -84 -124 -174 -164 -237 -203 -271 -307 -271 -49 0 -96 -24
-128 -64 -16 -20 -40 -44 -53 -53 -17 -11 -10 1 20 38 24 29 53 61 64 71 19
17 16 18 -80 12 -234 -14 -413 -97 -542 -252 -65 -78 -69 -82 -47 -44 31 55
122 149 190 198 137 98 272 134 500 134 l143 0 34 29 c27 24 227 293 227 305
0 14 -82 -24 -116 -54 -44 -37 -132 -90 -121 -72 4 5 31 24 60 40 103 58 99
62 -70 62 -140 0 -152 -2 -179 -22 -18 -14 -24 -16 -15 -5 18 22 18 22 -91
-15 -83 -28 -107 -32 -223 -34 l-130 -2 125 8 c97 6 142 14 200 35 134 48 169
55 297 55 137 0 210 12 247 41 24 19 57 104 71 184 6 31 9 36 14 21 7 -18 8
-18 14 -2 4 10 7 30 8 44 l1 27 8 -25 c4 -14 9 -18 10 -10z m-570 -344 c0 -3
-15 -14 -32 -26 l-33 -22 30 26 c31 27 35 29 35 22z m987 -12 c-3 -3 -12 -4
-19 -1 -8 3 -5 6 6 6 11 1 17 -2 13 -5z m-1430 -10 c-3 -3 -12 -4 -19 -1 -8 3
-5 6 6 6 11 1 17 -2 13 -5z m359 -39 c-11 -8 -25 -15 -30 -15 -6 1 0 7 14 15
32 19 40 18 16 0z m-66 -30 c-14 -8 -36 -14 -50 -14 -20 0 -16 3 15 14 53 17
65 17 35 0z m330 5 c-8 -5 -19 -10 -25 -10 -5 0 -3 5 5 10 8 5 20 10 25 10 6
0 3 -5 -5 -10z m1487 4 c-3 -3 -12 -4 -19 -1 -8 3 -5 6 6 6 11 1 17 -2 13 -5z
m-1900 -30 c-3 -3 -12 -4 -19 -1 -8 3 -5 6 6 6 11 1 17 -2 13 -5z m323 -9
c-14 -8 -29 -14 -35 -14 -5 0 1 6 15 14 14 8 30 14 35 14 6 0 -1 -6 -15 -14z
m-367 -2 c-7 -2 -19 -2 -25 0 -7 3 -2 5 12 5 14 0 19 -2 13 -5z m-60 -10 c-7
-2 -19 -2 -25 0 -7 3 -2 5 12 5 14 0 19 -2 13 -5z m-60 -10 c-7 -2 -19 -2 -25
0 -7 3 -2 5 12 5 14 0 19 -2 13 -5z m-56 -9 c-3 -3 -12 -4 -19 -1 -8 3 -5 6 6
6 11 1 17 -2 13 -5z m2096 -51 c-7 -2 -21 -2 -30 0 -10 3 -4 5 12 5 17 0 24
-2 18 -5z m-506 -69 c-3 -3 -12 -4 -19 -1 -8 3 -5 6 6 6 11 1 17 -2 13 -5z
m40 -10 c-3 -3 -12 -4 -19 -1 -8 3 -5 6 6 6 11 1 17 -2 13 -5z m60 -10 c-3 -3
-12 -4 -19 -1 -8 3 -5 6 6 6 11 1 17 -2 13 -5z m-660 -766 c-3 -8 -6 -5 -6 6
-1 11 2 17 5 13 3 -3 4 -12 1 -19z m-210 -20 c-3 -8 -6 -5 -6 6 -1 11 2 17 5
13 3 -3 4 -12 1 -19z m490 -10 c-3 -7 -5 -2 -5 12 0 14 2 19 5 13 2 -7 2 -19
0 -25z m-16 -36 c-5 -10 -18 -25 -27 -33 -11 -9 -9 -2 6 19 26 35 36 42 21 14z"/>
<path d="M2650 4532 c0 -26 22 -43 40 -32 12 7 12 13 4 27 -16 26 -44 29 -44
5z"/>
<path d="M2540 4507 c-30 -15 -37 -43 -16 -66 12 -13 13 -20 4 -29 -8 -8 -8
-15 1 -26 9 -11 9 -15 0 -18 -14 -5 -5 -38 10 -38 17 0 35 41 22 50 -9 5 -7
11 4 20 12 10 13 15 4 20 -7 5 -8 13 -3 21 5 8 14 29 20 47 10 28 9 32 -5 32
-9 0 -27 -6 -41 -13z"/>
<path d="M2656 4446 c7 -19 38 -22 32 -3 -3 6 -12 13 -21 15 -12 2 -15 -1 -11
-12z"/>
<path d="M2715 4450 c-8 -13 3 -30 18 -30 7 0 18 9 25 20 11 18 10 20 -12 20
-14 0 -28 -4 -31 -10z"/>
<path d="M2476 4436 c7 -19 38 -22 32 -3 -3 6 -12 13 -21 15 -12 2 -15 -1 -11
-12z"/>
<path d="M2452 4393 c2 -17 10 -29 21 -31 25 -5 22 35 -4 48 -19 11 -20 9 -17
-17z"/>
<path d="M2701 4404 c0 -11 3 -14 6 -6 3 7 2 16 -1 19 -3 4 -6 -2 -5 -13z"/>
<path d="M2755 4410 c-52 -21 -58 -70 -13 -103 24 -18 31 -19 53 -7 13 7 27
21 30 31 3 10 19 32 34 48 16 17 26 33 23 36 -8 8 -104 5 -127 -5z"/>
<path d="M1716 4384 c-19 -19 -20 -15 1 -65 l16 -42 19 23 c10 12 18 33 18 45
0 53 -24 70 -54 39z"/>
<path d="M3146 4384 c-11 -29 -6 -61 12 -84 l19 -23 16 42 c13 31 15 47 7 61
-13 24 -45 26 -54 4z"/>
<path d="M2630 4383 c0 -16 38 -46 49 -39 5 3 12 -2 14 -11 4 -15 5 -15 6 2 0
11 -3 25 -7 32 -9 15 -62 28 -62 16z"/>
<path d="M2450 4331 c0 -11 4 -21 9 -21 18 0 21 18 6 30 -13 10 -15 9 -15 -9z"/>
<path d="M2514 4305 c-9 -22 3 -45 22 -45 16 0 64 39 64 53 0 14 -80 7 -86 -8z"/>
<path d="M2676 4284 c-12 -47 28 -72 52 -33 13 20 12 21 -17 17 -28 -4 -30 -2
-25 19 4 13 4 23 1 23 -3 0 -8 -12 -11 -26z"/>
<path d="M2700 4294 c0 -8 5 -12 10 -9 6 3 10 10 10 16 0 5 -4 9 -10 9 -5 0
-10 -7 -10 -16z"/>
<path d="M2440 4275 c0 -8 7 -15 15 -15 8 0 15 4 15 9 0 5 -7 11 -15 15 -9 3
-15 0 -15 -9z"/>
<path d="M1805 4266 c-38 -16 -57 -39 -49 -59 14 -37 61 -29 70 12 3 14 8 34
11 44 5 20 6 20 -32 3z"/>
<path d="M3073 4263 c3 -10 8 -30 11 -45 5 -21 12 -28 30 -28 58 0 54 58 -5
79 -41 14 -41 14 -36 -6z"/>
<path d="M1695 4260 c3 -5 10 -10 16 -10 5 0 9 5 9 10 0 6 -7 10 -16 10 -8 0
-12 -4 -9 -10z"/>
<path d="M3190 4260 c0 -5 4 -10 9 -10 6 0 13 5 16 10 3 6 -1 10 -9 10 -9 0
-16 -4 -16 -10z"/>
<path d="M1530 4226 c0 -29 17 -43 33 -27 8 8 9 16 1 28 -17 27 -34 27 -34 -1z"/>
<path d="M3352 4238 c-18 -18 -14 -38 8 -38 15 0 20 7 20 25 0 27 -9 32 -28
13z"/>
<path d="M1667 4233 c-4 -3 2 -13 14 -21 22 -15 47 -3 35 17 -8 12 -39 15 -49
4z"/>
<path d="M2406 4215 c19 -29 39 -29 39 1 0 13 -8 20 -28 22 l-28 3 17 -26z"/>
<path d="M2494 4229 c-13 -21 14 -34 41 -19 18 10 22 16 13 22 -18 11 -46 10
-54 -3z"/>
<path d="M3190 4226 c0 -26 21 -29 43 -7 l21 21 -32 0 c-21 0 -32 -5 -32 -14z"/>
<path d="M3404 4216 c-15 -12 -16 -17 -7 -27 10 -10 17 -9 33 6 32 29 10 47
-26 21z"/>
<path d="M1472 4200 c14 -23 43 -23 43 0 0 9 -11 16 -28 18 -26 3 -27 2 -15
-18z"/>
<path d="M1523 4173 c-20 -7 -15 -23 7 -23 11 0 20 4 20 9 0 13 -12 19 -27 14z"/>
<path d="M1674 4161 c23 -26 49 -28 44 -3 -2 10 -14 18 -33 20 -30 4 -30 4
-11 -17z"/>
<path d="M3197 4173 c-12 -11 -8 -33 6 -33 8 0 22 9 32 20 18 19 17 20 -7 20
-13 0 -28 -3 -31 -7z"/>
<path d="M3367 4174 c-13 -13 -7 -24 14 -24 11 0 19 5 17 12 -5 14 -22 21 -31
12z"/>
<path d="M2004 4156 c-8 -22 3 -33 18 -18 9 9 9 15 0 24 -9 9 -13 7 -18 -6z"/>
<path d="M2162 4154 c-28 -11 -33 -18 -30 -41 2 -22 9 -29 30 -31 22 -3 29 2
33 21 4 14 5 34 3 45 -3 19 -5 20 -36 6z"/>
<path d="M2380 4163 c1 -13 27 -43 38 -43 15 0 22 26 9 39 -12 12 -47 15 -47
4z"/>
<path d="M2707 4138 c8 -43 22 -60 47 -56 14 2 22 12 24 30 3 21 -3 30 -27 42
-44 23 -51 20 -44 -16z"/>
<path d="M2876 4148 c-9 -37 -7 -51 8 -45 7 3 19 0 25 -6 8 -8 16 -6 31 8 11
10 20 22 20 27 0 12 -34 10 -48 -4 -9 -9 -15 -9 -24 0 -9 9 -8 12 6 12 10 0
16 5 14 12 -7 21 -25 19 -32 -4z"/>
<path d="M3103 4157 c4 -10 7 -25 7 -33 0 -8 9 -14 21 -14 27 0 22 28 -11 49
-23 15 -24 15 -17 -2z"/>
<path d="M1772 4148 c-18 -18 -14 -38 7 -38 12 0 20 9 23 25 6 27 -10 33 -30
13z"/>
<path d="M3295 4144 c-19 -19 -19 -29 1 -48 19 -19 14 -19 59 -1 29 13 34 19
25 30 -6 7 -24 18 -40 24 -23 8 -33 7 -45 -5z"/>
<path d="M1542 4134 c-27 -19 -28 -34 -3 -34 11 0 23 -4 26 -10 11 -17 44 -11
55 11 23 42 -32 66 -78 33z"/>
<path d="M2560 4135 c12 -15 30 -12 30 6 0 5 -10 9 -21 9 -18 0 -19 -2 -9 -15z"/>
<path d="M2487 4133 c-4 -3 -7 -12 -7 -20 0 -20 34 -15 48 7 11 18 10 20 -11
20 -13 0 -27 -3 -30 -7z"/>
<path d="M1968 4108 c16 -17 25 -19 33 -11 6 6 18 9 25 6 8 -3 14 1 14 9 0 9
-15 14 -47 16 l-47 2 22 -22z"/>
<path d="M1650 4095 c-10 -12 -10 -15 4 -15 9 0 16 7 16 15 0 8 -2 15 -4 15
-2 0 -9 -7 -16 -15z"/>
<path d="M2361 4080 c27 -36 54 -36 54 0 0 22 -5 25 -38 28 l-39 3 23 -31z"/>
<path d="M3240 4096 c0 -9 7 -16 16 -16 17 0 14 22 -4 28 -7 2 -12 -3 -12 -12z"/>
<path d="M1786 4084 c-20 -19 -20 -30 -2 -37 17 -7 36 11 36 35 0 22 -13 23
-34 2z"/>
<path d="M2600 4085 c-18 -21 -3 -35 37 -35 l36 0 -23 25 c-27 29 -33 30 -50
10z"/>
<path d="M3090 4080 c0 -25 27 -37 43 -21 9 10 8 16 -7 27 -27 19 -36 18 -36
-6z"/>
<path d="M2027 4083 c-12 -11 -8 -23 8 -23 8 0 15 7 15 15 0 16 -12 20 -23 8z"/>
<path d="M2860 4076 c0 -9 7 -16 16 -16 9 0 14 5 12 12 -6 18 -28 21 -28 4z"/>
<path d="M1923 4063 c-30 -21 -29 -29 6 -36 16 -4 41 -18 54 -33 17 -18 31
-25 42 -20 14 5 15 9 5 21 -7 8 -19 15 -27 15 -12 0 -13 3 -3 15 6 8 9 23 5
35 -8 24 -49 26 -82 3z"/>
<path d="M2110 4070 c0 -5 7 -10 16 -10 8 0 12 5 9 10 -3 6 -10 10 -16 10 -5
0 -9 -4 -9 -10z"/>
<path d="M2770 4070 c0 -5 7 -10 15 -10 8 0 15 5 15 10 0 6 -7 10 -15 10 -8 0
-15 -4 -15 -10z"/>
<path d="M2904 4066 c-3 -8 -1 -24 6 -35 9 -18 8 -21 -9 -21 -24 0 -36 -29
-15 -37 10 -4 23 2 33 15 9 12 34 29 56 38 l40 16 -24 19 c-27 22 -79 25 -87
5z"/>
<path d="M1602 4062 l-33 -3 28 -34 c15 -18 36 -45 46 -59 22 -32 59 -34 87
-4 26 28 25 41 -2 71 -24 26 -66 36 -126 29z"/>
<path d="M2051 4053 c-27 -22 -20 -48 11 -40 15 4 17 3 8 -8 -8 -10 -8 -15 0
-20 18 -11 22 1 13 45 l-8 42 -24 -19z"/>
<path d="M2827 4033 c-7 -39 -1 -57 14 -47 6 4 6 11 -2 20 -10 12 -9 13 5 8
21 -8 32 21 16 41 -19 23 -27 18 -33 -22z"/>
<path d="M3203 4055 c-44 -19 -54 -58 -22 -91 29 -31 63 -31 86 2 10 14 30 41
46 59 l27 33 -22 6 c-37 9 -81 6 -115 -9z"/>
<path d="M2163 4053 c-16 -6 -17 -33 -3 -33 11 0 26 28 19 34 -2 2 -10 1 -16
-1z"/>
<path d="M2732 4043 c2 -9 9 -18 16 -21 18 -6 15 25 -4 32 -11 4 -14 1 -12
-11z"/>
<path d="M1802 4018 c-18 -18 -14 -38 8 -38 15 0 20 7 20 25 0 27 -9 32 -28
13z"/>
<path d="M2326 4002 c18 -73 27 -82 65 -62 35 20 15 57 -44 79 -26 10 -27 10
-21 -17z"/>
<path d="M3082 4008 c4 -29 38 -38 38 -10 0 11 -7 23 -16 26 -24 9 -26 8 -22
-16z"/>
<path d="M2194 4006 c-54 -24 -52 -76 2 -76 18 0 25 7 30 28 3 15 8 35 11 45
5 20 -2 21 -43 3z"/>
<path d="M2677 3988 c3 -18 10 -39 16 -45 22 -29 74 -3 61 31 -6 17 -53 46
-73 46 -6 0 -8 -13 -4 -32z"/>
<path d="M2776 4011 c-4 -5 -2 -12 3 -15 5 -4 12 -2 15 3 4 5 2 12 -3 15 -5 4
-12 2 -15 -3z"/>
<path d="M2115 4000 c3 -5 10 -10 16 -10 5 0 9 5 9 10 0 6 -7 10 -16 10 -8 0
-12 -4 -9 -10z"/>
<path d="M3013 3982 c3 -9 8 -29 11 -43 6 -28 27 -42 50 -33 41 16 20 64 -36
83 -25 9 -29 8 -25 -7z"/>
<path d="M1835 3967 c-29 -25 -26 -52 7 -63 26 -8 38 5 48 50 7 31 5 36 -10
36 -11 0 -31 -10 -45 -23z"/>
<path d="M2502 3978 c-34 -17 -40 -57 -12 -80 12 -10 28 -18 35 -18 15 0 96
95 88 104 -10 10 -86 6 -111 -6z"/>
<path d="M2046 3963 c-3 -3 -1 -12 5 -19 6 -7 12 -25 14 -39 3 -30 19 -50 33
-41 15 9 21 45 10 53 -7 3 -8 1 -4 -5 4 -7 2 -12 -4 -12 -7 0 -14 9 -17 20 -3
11 -10 20 -15 20 -5 0 -7 4 -3 9 6 11 -9 23 -19 14z"/>
<path d="M2844 3954 c4 -11 2 -15 -7 -11 -8 3 -14 -1 -14 -9 0 -19 17 -18 33
4 18 23 17 32 -2 32 -11 0 -14 -5 -10 -16z"/>
<path d="M2115 3950 c3 -5 10 -10 16 -10 5 0 9 5 9 10 0 6 -7 10 -16 10 -8 0
-12 -4 -9 -10z"/>
<path d="M2770 3950 c0 -5 4 -10 9 -10 6 0 13 5 16 10 3 6 -1 10 -9 10 -9 0
-16 -4 -16 -10z"/>
<path d="M1732 3911 c16 -26 51 -28 46 -3 -2 10 -14 18 -31 20 -26 3 -27 2
-15 -17z"/>
<path d="M3134 3919 c-3 -6 -1 -16 5 -22 8 -8 17 -5 33 11 l22 22 -26 0 c-15
0 -30 -5 -34 -11z"/>
<path d="M2193 3913 c-16 -6 -17 -33 -3 -33 11 0 26 28 19 34 -2 2 -10 1 -16
-1z"/>
<path d="M2702 3903 c2 -9 9 -18 16 -21 18 -6 15 25 -4 32 -11 4 -14 1 -12
-11z"/>
<path d="M1144 3885 c15 -23 15 -25 -5 -36 -17 -9 -19 -13 -8 -20 8 -5 22 -9
33 -9 14 0 17 5 12 25 -7 27 3 32 22 13 18 -18 37 4 24 27 -6 12 -11 14 -16 6
-5 -8 -12 -7 -22 4 -9 8 -25 15 -36 15 -19 0 -19 -1 -4 -25z"/>
<path d="M2360 3898 c0 -18 18 -34 28 -24 3 4 -2 14 -11 23 -16 16 -17 16 -17
1z"/>
<path d="M2798 3888 c5 -22 38 -24 46 -2 9 24 8 24 -23 22 -22 -2 -27 -6 -23
-20z"/>
<path d="M3725 3900 c-8 -13 3 -30 18 -30 7 0 18 9 25 20 11 18 10 20 -12 20
-14 0 -28 -4 -31 -10z"/>
<path d="M1862 3888 c-18 -18 -14 -38 8 -38 15 0 20 7 20 25 0 27 -9 32 -28
13z"/>
<path d="M2433 3885 c-3 -9 -3 -19 1 -22 9 -9 56 18 50 29 -9 14 -44 9 -51 -7z"/>
<path d="M3020 3875 c0 -18 5 -25 20 -25 24 0 28 35 4 44 -23 9 -24 8 -24 -19z"/>
<path d="M2775 3879 c-4 -6 -5 -12 -2 -15 2 -3 7 2 10 11 7 17 1 20 -8 4z"/>
<path d="M3115 3871 c-6 -11 9 -23 19 -14 9 9 7 23 -3 23 -6 0 -12 -4 -16 -9z"/>
<path d="M1775 3860 c4 -6 11 -8 16 -5 14 9 11 15 -7 15 -8 0 -12 -5 -9 -10z"/>
<path d="M2193 3863 c-18 -7 -16 -33 2 -33 8 0 19 9 25 20 11 21 2 25 -27 13z"/>
<path d="M2690 3850 c12 -23 35 -22 35 1 0 8 -10 15 -23 17 -21 3 -22 1 -12
-18z"/>
<path d="M1230 3830 c0 -23 4 -30 20 -30 22 0 25 12 10 41 -16 28 -30 23 -30
-11z"/>
<path d="M2086 3851 c-18 -7 -18 -8 4 -24 26 -18 47 -9 37 17 -7 17 -12 18
-41 7z"/>
<path d="M2330 3840 c13 -23 45 -23 45 0 0 9 -11 16 -28 18 -26 3 -28 2 -17
-18z"/>
<path d="M2783 3845 c-9 -24 4 -30 32 -15 19 10 22 16 13 22 -20 12 -38 9 -45
-7z"/>
<path d="M3730 3840 c0 -21 12 -24 45 -11 19 8 19 8 -2 19 -31 17 -43 15 -43
-8z"/>
<path d="M2146 3828 c6 -25 3 -28 -20 -28 -24 0 -25 -2 -14 -20 15 -24 31 -25
52 -5 8 8 19 15 24 15 6 0 12 7 16 15 6 18 -19 21 -30 4 -4 -7 -12 -1 -20 17
l-13 29 5 -27z"/>
<path d="M1880 3825 c0 -8 5 -15 10 -15 6 0 10 7 10 15 0 8 -4 15 -10 15 -5 0
-10 -7 -10 -15z"/>
<path d="M2430 3826 c0 -22 19 -30 35 -16 22 18 18 30 -10 30 -15 0 -25 -6
-25 -14z"/>
<path d="M3010 3825 c0 -8 5 -15 10 -15 6 0 10 7 10 15 0 8 -4 15 -10 15 -5 0
-10 -7 -10 -15z"/>
<path d="M1770 3822 c0 -12 23 -32 37 -32 7 0 13 9 13 20 0 15 -7 20 -25 20
-14 0 -25 -4 -25 -8z"/>
<path d="M3086 3822 c-2 -4 -1 -14 4 -22 7 -11 14 -12 27 -4 27 17 27 34 -1
34 -13 0 -27 -4 -30 -8z"/>
<path d="M1150 3785 c13 -14 20 -25 16 -25 -5 0 -3 -7 4 -15 7 -8 21 -15 31
-15 22 0 26 28 5 36 -8 3 -16 14 -19 25 -4 13 -14 19 -33 19 l-27 0 23 -25z"/>
<path d="M1985 3796 c-17 -7 -36 -20 -43 -28 -23 -28 8 -65 43 -52 13 5 41 81
33 89 -2 2 -17 -2 -33 -9z"/>
<path d="M2893 3793 c3 -10 8 -30 11 -45 5 -21 12 -28 30 -28 28 0 49 22 40
43 -5 14 -61 47 -79 47 -3 0 -4 -8 -2 -17z"/>
<path d="M3720 3791 c0 -10 -7 -21 -15 -25 -21 -8 -19 -36 4 -36 10 0 24 7 31
15 7 8 9 15 4 15 -4 0 3 11 16 25 l23 25 -31 0 c-25 0 -32 -4 -32 -19z"/>
<path d="M1310 3792 c0 -5 9 -17 20 -27 26 -23 52 -6 30 20 -13 16 -50 21 -50
7z"/>
<path d="M1380 3772 c0 -21 5 -32 14 -32 26 0 29 21 7 43 l-21 21 0 -32z"/>
<path d="M1907 3794 c-8 -8 1 -24 14 -24 5 0 9 7 9 15 0 15 -12 20 -23 9z"/>
<path d="M2352 3783 c2 -9 9 -18 16 -21 18 -6 15 25 -4 32 -11 4 -14 1 -12
-11z"/>
<path d="M2980 3785 c0 -9 5 -15 11 -13 6 2 11 8 11 13 0 5 -5 11 -11 13 -6 2
-11 -4 -11 -13z"/>
<path d="M3505 3784 c-19 -19 -15 -38 8 -42 13 -3 17 4 17 27 0 36 -3 37 -25
15z"/>
<path d="M3551 3791 c-12 -8 -12 -12 -2 -25 15 -18 26 -14 41 15 9 15 7 19 -7
19 -10 0 -24 -4 -32 -9z"/>
<path d="M1260 3770 c0 -5 5 -10 10 -10 6 0 10 5 10 10 0 6 -4 10 -10 10 -5 0
-10 -4 -10 -10z"/>
<path d="M1825 3770 c3 -5 10 -10 16 -10 5 0 9 5 9 10 0 6 -7 10 -16 10 -8 0
-12 -4 -9 -10z"/>
<path d="M3060 3770 c0 -5 4 -10 9 -10 6 0 13 5 16 10 3 6 -1 10 -9 10 -9 0
-16 -4 -16 -10z"/>
<path d="M3630 3770 c0 -5 5 -10 10 -10 6 0 10 5 10 10 0 6 -4 10 -10 10 -5 0
-10 -4 -10 -10z"/>
<path d="M2191 3754 c0 -11 3 -14 6 -6 3 7 2 16 -1 19 -3 4 -6 -2 -5 -13z"/>
<path d="M2487 3725 c14 -41 19 -46 42 -43 53 6 31 68 -30 83 l-27 7 15 -47z"/>
<path d="M2705 3761 c-3 -5 -1 -12 5 -16 5 -3 10 1 10 9 0 18 -6 21 -15 7z"/>
<path d="M1440 3740 c0 -13 5 -20 13 -17 6 2 12 10 12 17 0 7 -6 15 -12 18 -8
2 -13 -5 -13 -18z"/>
<path d="M1560 3731 c0 -33 16 -49 33 -32 8 8 7 18 -3 36 -18 33 -30 32 -30
-4z"/>
<path d="M1613 3721 c18 -34 27 -41 47 -39 17 2 26 10 28 24 4 27 -17 43 -62
51 l-36 6 23 -42z"/>
<path d="M3243 3750 c-30 -12 -31 -56 -3 -65 26 -8 34 -3 59 40 l20 35 -27 -1
c-15 0 -37 -4 -49 -9z"/>
<path d="M3320 3734 c-12 -21 -12 -27 0 -34 20 -13 30 -3 30 31 0 36 -12 37
-30 3z"/>
<path d="M3445 3750 c-8 -13 4 -32 16 -25 12 8 12 35 0 35 -6 0 -13 -4 -16
-10z"/>
<path d="M1290 3735 c0 -8 4 -15 10 -15 5 0 7 7 4 15 -4 8 -8 15 -10 15 -2 0
-4 -7 -4 -15z"/>
<path d="M2600 3735 c-17 -21 -3 -55 24 -55 19 0 66 46 66 65 0 12 -78 4 -90
-10z"/>
<path d="M3366 3734 c-9 -22 -8 -24 9 -24 8 0 15 6 15 14 0 22 -17 28 -24 10z"/>
<path d="M3606 3741 c-4 -7 -5 -15 -2 -18 9 -9 19 4 14 18 -4 11 -6 11 -12 0z"/>
<path d="M1337 3734 c-9 -10 2 -24 19 -24 8 0 14 7 14 15 0 15 -21 21 -33 9z"/>
<path d="M1485 3731 c-3 -5 -1 -12 5 -16 5 -3 10 1 10 9 0 18 -6 21 -15 7z"/>
<path d="M1525 3730 c-4 -6 -3 -16 3 -22 6 -6 12 -6 17 2 4 6 3 16 -3 22 -6 6
-12 6 -17 -2z"/>
<path d="M3410 3730 c0 -5 5 -10 11 -10 5 0 7 5 4 10 -3 6 -8 10 -11 10 -2 0
-4 -4 -4 -10z"/>
<path d="M3540 3732 c0 -14 11 -21 26 -15 8 3 11 9 8 14 -7 11 -34 12 -34 1z"/>
<path d="M1223 3723 c-7 -3 -13 -16 -13 -29 0 -22 3 -23 20 -14 31 16 24 54
-7 43z"/>
<path d="M2745 3720 c-3 -5 1 -10 9 -10 9 0 16 5 16 10 0 6 -4 10 -9 10 -6 0
-13 -4 -16 -10z"/>
<path d="M3663 3715 c-3 -9 2 -22 13 -30 16 -12 19 -12 22 1 8 36 -22 61 -35
29z"/>
<path d="M2890 3702 c0 -12 -4 -24 -10 -27 -5 -3 -10 -10 -10 -16 0 -5 5 -9
10 -9 6 0 10 7 10 15 0 8 7 15 15 15 8 0 15 4 15 9 0 5 -7 14 -15 21 -13 10
-15 9 -15 -8z"/>
<path d="M3016 3711 c-4 -5 -2 -12 3 -15 5 -4 12 -2 15 3 4 5 2 12 -3 15 -5 4
-12 2 -15 -3z"/>
<path d="M1382 3698 c-20 -20 -14 -30 16 -26 16 2 27 9 27 18 0 19 -27 24 -43
8z"/>
<path d="M1717 3688 c-7 -26 -1 -38 19 -38 18 0 18 34 0 49 -11 9 -15 7 -19
-11z"/>
<path d="M1875 3700 c3 -5 10 -10 16 -10 5 0 9 5 9 10 0 6 -7 10 -16 10 -8 0
-12 -4 -9 -10z"/>
<path d="M1997 3703 c-12 -11 -8 -23 8 -23 8 0 15 -7 15 -15 0 -8 4 -15 9 -15
5 0 4 14 -2 30 -12 30 -18 35 -30 23z"/>
<path d="M3171 3696 c-14 -17 -9 -46 8 -46 16 0 22 17 13 40 -7 19 -9 20 -21
6z"/>
<path d="M3484 3699 c-9 -15 13 -28 37 -22 15 4 17 8 8 19 -14 17 -35 18 -45
3z"/>
<path d="M2200 3690 c0 -5 5 -10 10 -10 6 0 10 5 10 10 0 6 -4 10 -10 10 -5 0
-10 -4 -10 -10z"/>
<path d="M2695 3690 c3 -5 8 -10 11 -10 2 0 4 5 4 10 0 6 -5 10 -11 10 -5 0
-7 -4 -4 -10z"/>
<path d="M3410 3685 c-24 -29 -8 -49 45 -57 27 -4 51 -5 53 -4 6 7 -60 76 -73
76 -7 0 -18 -7 -25 -15z"/>
<path d="M1254 3675 c-9 -22 1 -29 15 -11 8 10 9 16 1 21 -5 3 -13 -1 -16 -10z"/>
<path d="M1431 3664 c-30 -38 -27 -44 20 -40 46 4 62 16 57 42 -5 31 -52 30
-77 -2z"/>
<path d="M3636 3682 c-3 -6 -1 -14 5 -17 15 -10 25 3 12 16 -7 7 -13 7 -17 1z"/>
<path d="M1524 3655 c-8 -34 -3 -37 25 -16 13 10 21 23 17 30 -12 20 -35 12
-42 -14z"/>
<path d="M2122 3660 c14 -23 43 -23 43 0 0 9 -11 16 -28 18 -26 3 -27 2 -15
-18z"/>
<path d="M2440 3670 c0 -5 4 -10 9 -10 6 0 13 5 16 10 3 6 -1 10 -9 10 -9 0
-16 -4 -16 -10z"/>
<path d="M2744 3669 c-3 -6 -1 -16 5 -22 8 -8 17 -5 33 11 l22 22 -26 0 c-15
0 -30 -5 -34 -11z"/>
<path d="M3344 3668 c-4 -6 1 -17 11 -25 32 -23 43 -15 29 21 -7 19 -30 21
-40 4z"/>
<path d="M1590 3655 c0 -9 5 -15 11 -13 6 2 11 8 11 13 0 5 -5 11 -11 13 -6 2
-11 -4 -11 -13z"/>
<path d="M1772 3657 c-9 -11 -10 -17 -2 -22 15 -9 23 -1 18 21 -3 15 -4 16
-16 1z"/>
<path d="M1892 3658 c2 -6 12 -16 21 -22 13 -8 20 -7 27 4 12 20 3 30 -26 30
-15 0 -24 -5 -22 -12z"/>
<path d="M2496 3656 c8 -20 48 -36 65 -25 10 6 6 9 -13 9 -18 0 -28 5 -28 15
0 8 -7 15 -15 15 -8 0 -12 -6 -9 -14z"/>
<path d="M2560 3660 c0 -5 4 -10 9 -10 6 0 13 5 16 10 3 6 -1 10 -9 10 -9 0
-16 -4 -16 -10z"/>
<path d="M2966 3662 c-2 -4 -1 -14 4 -22 7 -11 14 -12 27 -4 27 17 27 34 -1
34 -13 0 -27 -4 -30 -8z"/>
<path d="M3120 3651 c0 -11 4 -21 9 -21 18 0 21 18 6 30 -13 10 -15 9 -15 -9z"/>
<path d="M3290 3661 c0 -5 7 -11 15 -15 9 -3 15 0 15 9 0 8 -7 15 -15 15 -8 0
-15 -4 -15 -9z"/>
<path d="M1262 3642 c-9 -6 -5 -12 13 -22 18 -10 28 -11 36 -3 24 24 -18 44
-49 25z"/>
<path d="M1370 3641 c0 -6 5 -13 10 -16 6 -3 10 1 10 9 0 9 -4 16 -10 16 -5 0
-10 -4 -10 -9z"/>
<path d="M3520 3640 c0 -5 5 -10 10 -10 6 0 10 5 10 10 0 6 -4 10 -10 10 -5 0
-10 -4 -10 -10z"/>
<path d="M3594 3639 c-3 -6 -1 -16 5 -22 13 -13 42 0 49 21 5 15 -44 16 -54 1z"/>
<path d="M1657 3633 c-4 -3 2 -13 14 -21 22 -15 47 -3 35 17 -8 12 -39 15 -49
4z"/>
<path d="M3200 3626 c0 -22 17 -28 40 -14 28 18 25 28 -10 28 -19 0 -30 -5
-30 -14z"/>
<path d="M1728 3619 c-10 -5 -18 -21 -18 -35 0 -22 2 -23 20 -12 11 7 19 22
18 35 -2 13 -3 23 -3 23 0 0 -8 -5 -17 -11z"/>
<path d="M1965 3621 c-3 -5 -1 -12 5 -16 5 -3 10 1 10 9 0 18 -6 21 -15 7z"/>
<path d="M2070 3620 c0 -5 5 -10 10 -10 6 0 10 5 10 10 0 6 -4 10 -10 10 -5 0
-10 -4 -10 -10z"/>
<path d="M2470 3620 c0 -5 9 -14 21 -20 19 -11 20 -10 9 9 -11 22 -30 29 -30
11z"/>
<path d="M2820 3620 c0 -5 5 -10 10 -10 6 0 10 5 10 10 0 6 -4 10 -10 10 -5 0
-10 -4 -10 -10z"/>
<path d="M2930 3620 c0 -5 5 -10 10 -10 6 0 10 5 10 10 0 6 -4 10 -10 10 -5 0
-10 -4 -10 -10z"/>
<path d="M3564 3605 c-3 -8 -3 -18 0 -24 3 -5 -3 -7 -14 -4 -11 3 -20 0 -20
-6 0 -6 14 -10 35 -8 28 2 35 6 35 23 0 26 -28 40 -36 19z"/>
<path d="M1317 3603 c-14 -13 -7 -39 11 -39 9 -1 25 -4 35 -9 12 -5 17 -3 17
10 0 12 -6 16 -19 12 -14 -3 -17 0 -14 14 5 19 -16 27 -30 12z"/>
<path d="M1825 3600 c-8 -13 4 -32 16 -25 12 8 12 35 0 35 -6 0 -13 -4 -16
-10z"/>
<path d="M2135 3600 c3 -5 10 -10 16 -10 5 0 9 5 9 10 0 6 -7 10 -16 10 -8 0
-12 -4 -9 -10z"/>
<path d="M2533 3603 c-16 -6 -17 -29 -1 -39 10 -7 38 20 38 38 0 9 -18 9 -37
1z"/>
<path d="M2750 3600 c0 -5 5 -10 10 -10 6 0 10 5 10 10 0 6 -4 10 -10 10 -5 0
-10 -4 -10 -10z"/>
<path d="M1450 3586 c0 -9 5 -16 10 -16 6 0 10 4 10 9 0 6 -4 13 -10 16 -5 3
-10 -1 -10 -9z"/>
<path d="M2881 3586 c-7 -8 -10 -24 -6 -36 7 -23 35 -25 78 -7 28 12 28 13 10
29 -28 25 -67 32 -82 14z"/>
<path d="M1949 3571 l-24 -19 38 -16 c21 -8 44 -13 52 -10 17 7 29 39 20 54
-10 17 -61 11 -86 -9z"/>
<path d="M2380 3576 c0 -9 7 -16 16 -16 9 0 14 5 12 12 -6 18 -28 21 -28 4z"/>
<path d="M1767 3573 c-12 -11 -8 -23 8 -23 8 0 15 7 15 15 0 16 -12 20 -23 8z"/>
<path d="M3396 3561 c-4 -7 -5 -15 -2 -18 9 -9 19 4 14 18 -4 11 -6 11 -12 0z"/>
<path d="M1500 3550 c0 -5 5 -10 10 -10 6 0 10 5 10 10 0 6 -4 10 -10 10 -5 0
-10 -4 -10 -10z"/>
<path d="M1536 3553 c-12 -12 -6 -33 9 -33 8 0 15 6 15 14 0 17 -14 28 -24 19z"/>
<path d="M3497 3554 c-11 -11 3 -24 25 -24 17 0 18 2 8 15 -13 16 -23 19 -33
9z"/>
<path d="M1890 3525 c0 -27 17 -42 31 -28 12 12 2 40 -17 47 -10 4 -14 -2 -14
-19z"/>
<path d="M2992 3538 c-16 -16 -15 -35 2 -41 19 -7 26 1 26 30 0 25 -10 29 -28
11z"/>
<path d="M3232 3529 c-18 -28 -15 -49 8 -49 15 0 20 7 20 29 0 37 -12 46 -28
20z"/>
<path d="M1650 3510 c0 -23 4 -30 20 -30 23 0 25 17 6 43 -19 25 -26 21 -26
-13z"/>
<path d="M1777 3534 c-8 -9 15 -44 30 -44 22 0 26 23 8 37 -21 14 -29 16 -38
7z"/>
<path d="M3092 3528 c-8 -8 -9 -15 0 -25 9 -11 14 -11 29 3 11 10 19 21 19 26
0 12 -34 10 -48 -4z"/>
<path d="M2080 3520 c0 -5 5 -10 10 -10 6 0 10 5 10 10 0 6 -4 10 -10 10 -5 0
-10 -4 -10 -10z"/>
<path d="M2405 3520 c3 -5 8 -10 11 -10 2 0 4 5 4 10 0 6 -5 10 -11 10 -5 0
-7 -4 -4 -10z"/>
<path d="M2657 3523 c-13 -12 -7 -43 7 -43 19 0 28 14 20 34 -7 17 -16 20 -27
9z"/>
<path d="M2810 3520 c0 -5 4 -10 9 -10 6 0 13 5 16 10 3 6 -1 10 -9 10 -9 0
-16 -4 -16 -10z"/>
<path d="M1470 3475 c-6 -8 -10 -22 -8 -31 3 -15 5 -14 27 3 14 11 21 25 17
31 -10 16 -21 15 -36 -3z"/>
<path d="M3404 3479 c-4 -7 4 -20 17 -30 28 -21 33 -18 25 16 -7 26 -30 34
-42 14z"/>
<path d="M1825 3470 c3 -5 10 -10 16 -10 5 0 9 5 9 10 0 6 -7 10 -16 10 -8 0
-12 -4 -9 -10z"/>
<path d="M2125 3470 c-8 -12 20 -24 35 -15 6 3 8 11 5 16 -8 12 -32 12 -40 -1z"/>
<path d="M2270 3466 c0 -9 5 -16 10 -16 6 0 10 4 10 9 0 6 -4 13 -10 16 -5 3
-10 -1 -10 -9z"/>
<path d="M2395 3470 c3 -5 10 -10 16 -10 5 0 9 5 9 10 0 6 -7 10 -16 10 -8 0
-12 -4 -9 -10z"/>
<path d="M2626 3471 c-4 -7 -5 -15 -2 -18 9 -9 19 4 14 18 -4 11 -6 11 -12 0z"/>
<path d="M2745 3470 c-8 -12 20 -24 35 -15 5 3 10 10 10 16 0 12 -37 12 -45
-1z"/>
<path d="M3060 3470 c0 -5 4 -10 9 -10 6 0 13 5 16 10 3 6 -1 10 -9 10 -9 0
-16 -4 -16 -10z"/>
<path d="M1516 3463 c-10 -10 -7 -35 4 -28 6 3 10 -4 10 -15 0 -17 4 -20 18
-15 9 4 30 7 45 6 20 -1 27 3 24 11 -2 7 -9 12 -16 11 -6 -2 -26 6 -45 16 -19
11 -37 17 -40 14z"/>
<path d="M2495 3460 c4 -6 11 -8 16 -5 14 9 11 15 -7 15 -8 0 -12 -5 -9 -10z"/>
<path d="M3372 3459 c2 -7 10 -15 17 -17 8 -3 12 1 9 9 -2 7 -10 15 -17 17 -8
3 -12 -1 -9 -9z"/>
<path d="M3341 3446 c-6 -8 -21 -12 -31 -9 -15 4 -20 0 -20 -13 0 -16 -2 -17
-11 -4 -8 11 -12 12 -16 3 -3 -8 -14 -11 -27 -7 -41 10 -75 -48 -43 -73 6 -6
32 -13 57 -16 24 -3 49 -13 56 -21 15 -21 24 -20 24 1 0 9 -3 13 -7 10 -5 -6
-53 65 -53 78 0 2 16 9 35 15 25 8 40 8 55 0 17 -9 20 -8 20 8 0 29 -24 46
-39 28z"/>
<path d="M1626 3414 c-8 -22 -8 -26 4 -19 15 9 12 -1 -10 -37 -11 -18 -20 -36
-20 -39 0 -11 113 10 121 23 23 35 2 71 -40 70 -17 0 -31 4 -31 9 0 15 -17 10
-24 -7z"/>
<path d="M2321 3414 c0 -11 3 -14 6 -6 3 7 2 16 -1 19 -3 4 -6 -2 -5 -13z"/>
<path d="M2516 3421 c-4 -7 -5 -15 -2 -18 9 -9 19 4 14 18 -4 11 -6 11 -12 0z"/>
<path d="M2581 3414 c0 -11 3 -14 6 -6 3 7 2 16 -1 19 -3 4 -6 -2 -5 -13z"/>
<path d="M2172 3413 l-24 -5 23 -24 c25 -27 57 -31 65 -9 7 17 -13 46 -30 44
-6 -1 -22 -4 -34 -6z"/>
<path d="M2425 3410 c3 -5 8 -10 11 -10 2 0 4 5 4 10 0 6 -5 10 -11 10 -5 0
-7 -4 -4 -10z"/>
<path d="M1410 3392 c0 -14 60 -73 69 -68 5 4 7 -3 4 -14 -4 -15 -1 -19 9 -15
17 7 21 74 6 93 -11 13 -88 17 -88 4z"/>
<path d="M1767 3393 c-12 -11 -8 -23 8 -23 8 0 15 7 15 15 0 16 -12 20 -23 8z"/>
<path d="M1805 3380 c-4 -12 -5 -24 -2 -27 9 -9 48 18 44 30 -7 21 -35 19 -42
-3z"/>
<path d="M1978 3390 c-50 -15 -50 -21 -1 -56 42 -30 50 -32 68 -20 26 17 30
49 10 70 -18 17 -35 19 -77 6z"/>
<path d="M2858 3389 c-21 -12 -24 -49 -6 -67 19 -19 45 -14 89 18 l42 30 -36
15 c-42 17 -65 18 -89 4z"/>
<path d="M3060 3385 c0 -15 38 -41 47 -32 3 3 2 15 -2 26 -7 24 -45 29 -45 6z"/>
<path d="M3120 3384 c0 -9 5 -14 12 -12 18 6 21 28 4 28 -9 0 -16 -7 -16 -16z"/>
<path d="M3412 3388 c-15 -19 -11 -86 6 -93 10 -4 13 0 9 15 -4 14 0 20 11 20
10 0 30 16 45 35 l28 35 -44 0 c-25 0 -49 -6 -55 -12z"/>
<path d="M2361 3364 c0 -11 3 -14 6 -6 3 7 2 16 -1 19 -3 4 -6 -2 -5 -13z"/>
<path d="M2541 3364 c0 -11 3 -14 6 -6 3 7 2 16 -1 19 -3 4 -6 -2 -5 -13z"/>
<path d="M3586 3353 c-13 -17 -15 -28 -8 -35 15 -15 42 -2 42 19 0 35 -14 42
-34 16z"/>
<path d="M1297 3364 c-12 -13 -8 -52 7 -57 26 -10 38 18 19 42 -10 12 -22 19
-26 15z"/>
<path d="M1525 3358 c-9 -22 4 -43 17 -30 7 7 7 16 0 29 -10 17 -11 17 -17 1z"/>
<path d="M3357 3343 c-11 -13 -16 -27 -12 -31 4 -4 10 -1 12 6 3 6 11 12 19
12 8 0 14 6 14 14 0 25 -14 25 -33 -1z"/>
<path d="M1192 3348 c6 -16 36 -34 44 -26 3 4 4 14 1 23 -7 17 -51 21 -45 3z"/>
<path d="M1350 3332 c0 -21 5 -32 14 -32 26 0 29 21 7 43 l-21 21 0 -32z"/>
<path d="M2242 3348 c7 -19 38 -22 38 -4 0 10 -9 16 -21 16 -12 0 -19 -5 -17
-12z"/>
<path d="M2630 3344 c0 -9 7 -14 17 -12 25 5 28 28 4 28 -12 0 -21 -6 -21 -16z"/>
<path d="M3536 3341 c-19 -21 -14 -41 10 -41 9 0 14 11 14 30 0 35 -1 36 -24
11z"/>
<path d="M3670 3340 c0 -11 7 -20 15 -20 8 0 19 9 25 20 9 18 8 20 -15 20 -18
0 -25 -5 -25 -20z"/>
<path d="M1265 3341 c-3 -5 -1 -12 5 -16 5 -3 10 1 10 9 0 18 -6 21 -15 7z"/>
<path d="M3630 3334 c0 -8 5 -12 10 -9 6 4 8 11 5 16 -9 14 -15 11 -15 -7z"/>
<path d="M1550 3320 c0 -5 5 -10 10 -10 6 0 10 5 10 10 0 6 -4 10 -10 10 -5 0
-10 -4 -10 -10z"/>
<path d="M1400 3308 c0 -9 9 -20 21 -23 25 -8 34 -1 25 22 -6 15 -8 15 -17 3
-8 -13 -10 -13 -19 0 -8 13 -10 13 -10 -2z"/>
<path d="M1860 3313 c0 -4 4 -14 9 -22 11 -17 45 -7 39 12 -5 13 -48 23 -48
10z"/>
<path d="M2103 3313 c-20 -7 -15 -23 7 -23 11 0 20 4 20 9 0 13 -12 19 -27 14z"/>
<path d="M2285 3310 c3 -5 10 -10 16 -10 5 0 9 5 9 10 0 6 -7 10 -16 10 -8 0
-12 -4 -9 -10z"/>
<path d="M2600 3310 c0 -5 4 -10 9 -10 6 0 13 5 16 10 3 6 -1 10 -9 10 -9 0
-16 -4 -16 -10z"/>
<path d="M2787 3314 c-13 -13 -7 -24 14 -24 11 0 19 5 17 12 -5 14 -22 21 -31
12z"/>
<path d="M3005 3310 c-8 -13 3 -30 20 -30 11 0 25 20 25 36 0 9 -39 4 -45 -6z"/>
<path d="M3464 3307 c-8 -21 2 -35 16 -21 5 5 6 15 0 24 -8 12 -10 12 -16 -3z"/>
<path d="M3495 3311 c-3 -5 -1 -12 5 -16 5 -3 10 1 10 9 0 18 -6 21 -15 7z"/>
<path d="M1580 3300 c0 -5 5 -10 11 -10 5 0 7 5 4 10 -3 6 -8 10 -11 10 -2 0
-4 -4 -4 -10z"/>
<path d="M1966 3294 c-12 -32 -7 -54 14 -54 23 0 26 26 6 53 -12 16 -14 16
-20 1z"/>
<path d="M2923 3290 c-18 -27 -16 -50 2 -50 20 0 30 26 19 51 -9 19 -9 19 -21
-1z"/>
<path d="M1245 3291 c-7 -12 12 -24 25 -16 11 7 4 25 -10 25 -5 0 -11 -4 -15
-9z"/>
<path d="M1506 3291 c-3 -5 0 -11 8 -14 15 -6 26 1 26 15 0 11 -27 10 -34 -1z"/>
<path d="M1626 3293 c-12 -12 -6 -33 9 -33 8 0 15 6 15 14 0 17 -14 28 -24 19z"/>
<path d="M1782 3280 c14 -23 43 -23 43 0 0 9 -11 16 -28 18 -26 3 -27 2 -15
-18z"/>
<path d="M2967 3293 c-10 -9 -8 -33 2 -33 5 0 11 9 14 20 5 20 -3 26 -16 13z"/>
<path d="M3084 3289 c-3 -6 -1 -16 5 -22 8 -8 17 -5 33 11 l22 22 -26 0 c-15
0 -30 -5 -34 -11z"/>
<path d="M3266 3293 c-12 -12 -6 -33 9 -33 8 0 15 6 15 14 0 17 -14 28 -24 19z"/>
<path d="M3370 3290 c0 -5 9 -10 21 -10 11 0 17 5 14 10 -3 6 -13 10 -21 10
-8 0 -14 -4 -14 -10z"/>
<path d="M3630 3290 c0 -5 12 -10 26 -10 14 0 23 4 19 10 -3 6 -15 10 -26 10
-10 0 -19 -4 -19 -10z"/>
<path d="M1290 3276 c0 -17 14 -29 23 -20 8 8 -3 34 -14 34 -5 0 -9 -6 -9 -14z"/>
<path d="M1350 3280 c10 -6 11 -10 3 -10 -7 0 -13 -7 -13 -16 0 -23 24 -11 28
14 2 16 -2 22 -15 22 -15 0 -16 -2 -3 -10z"/>
<path d="M1926 3282 c-3 -6 -1 -14 5 -17 15 -10 25 3 12 16 -7 7 -13 7 -17 1z"/>
<path d="M3537 3271 c5 -20 33 -38 33 -22 0 20 -13 41 -25 41 -8 0 -11 -8 -8
-19z"/>
<path d="M3597 3283 c-12 -11 -8 -23 8 -23 8 0 15 7 15 15 0 16 -12 20 -23 8z"/>
<path d="M1400 3271 c23 -6 24 -7 5 -14 -16 -7 -17 -10 -5 -17 21 -14 30 -12
30 5 0 9 10 16 23 16 18 1 16 3 -8 9 -39 10 -81 11 -45 1z"/>
<path d="M2570 3270 c0 -5 4 -10 9 -10 6 0 13 5 16 10 3 6 -1 10 -9 10 -9 0
-16 -4 -16 -10z"/>
<path d="M3480 3260 c0 -14 7 -20 21 -20 17 0 19 3 10 14 -9 11 -9 15 1 19 7
3 3 6 -9 6 -17 1 -23 -5 -23 -19z"/>
<path d="M1660 3255 c0 -8 4 -15 10 -15 5 0 7 7 4 15 -4 8 -8 15 -10 15 -2 0
-4 -7 -4 -15z"/>
<path d="M1700 3246 c0 -29 17 -43 33 -27 8 8 9 16 1 28 -17 27 -34 27 -34 -1z"/>
<path d="M2130 3260 c0 -5 7 -10 16 -10 8 0 12 5 9 10 -3 6 -10 10 -16 10 -5
0 -9 -4 -9 -10z"/>
<path d="M2755 3260 c-3 -5 1 -10 9 -10 9 0 16 5 16 10 0 6 -4 10 -9 10 -6 0
-13 -4 -16 -10z"/>
<path d="M3180 3256 c-16 -20 -6 -48 15 -40 17 7 19 22 6 42 -6 10 -10 10 -21
-2z"/>
<path d="M3241 3254 c0 -11 3 -14 6 -6 3 7 2 16 -1 19 -3 4 -6 -2 -5 -13z"/>
<path d="M3438 3263 c6 -2 18 -2 25 0 6 3 1 5 -13 5 -14 0 -19 -2 -12 -5z"/>
<path d="M1468 3246 c-24 -18 -23 -26 3 -26 14 0 19 5 16 14 -4 10 2 16 16 19
20 4 20 4 2 5 -11 1 -28 -5 -37 -12z"/>
<path d="M1845 3250 c3 -5 10 -10 16 -10 5 0 9 5 9 10 0 6 -7 10 -16 10 -8 0
-12 -4 -9 -10z"/>
<path d="M2016 3253 c-12 -12 -6 -33 9 -33 8 0 15 6 15 14 0 17 -14 28 -24 19z"/>
<path d="M2874 3246 c-8 -22 3 -33 18 -18 9 9 9 15 0 24 -9 9 -13 7 -18 -6z"/>
<path d="M3040 3250 c0 -5 4 -10 9 -10 6 0 13 5 16 10 3 6 -1 10 -9 10 -9 0
-16 -4 -16 -10z"/>
<path d="M3388 3253 c7 -3 16 -2 19 1 4 3 -2 6 -13 5 -11 0 -14 -3 -6 -6z"/>
<path d="M1523 3243 c-7 -2 -13 -12 -13 -21 1 -15 2 -15 14 1 13 17 46 24 46
9 0 -4 -5 -13 -12 -20 -9 -9 -7 -12 10 -12 13 0 22 6 22 15 0 12 7 14 28 9 33
-8 41 -15 25 -21 -20 -7 -15 -23 7 -23 11 0 20 7 20 15 0 8 6 12 14 9 8 -3 12
-13 9 -25 -7 -25 3 -25 17 1 13 25 -9 37 -99 56 -71 15 -70 15 -88 7z"/>
<path d="M1901 3241 c-11 -7 -9 -11 9 -21 18 -10 24 -9 31 1 5 8 3 17 -4 21
-15 10 -19 10 -36 -1z"/>
<path d="M2264 3236 c-8 -22 3 -33 18 -18 9 9 9 15 0 24 -9 9 -13 7 -18 -6z"/>
<path d="M2625 3240 c-7 -12 2 -30 16 -30 12 0 12 27 0 35 -5 3 -12 1 -16 -5z"/>
<path d="M3295 3235 c-35 -13 -36 -14 -7 -9 25 4 32 2 32 -10 0 -9 7 -16 15
-16 18 0 20 16 3 26 -9 6 -5 10 12 15 19 5 21 7 5 7 -11 0 -38 -6 -60 -13z"/>
<path d="M2440 3230 c0 -5 7 -10 15 -10 8 0 15 5 15 10 0 6 -7 10 -15 10 -8 0
-15 -4 -15 -10z"/>
<path d="M3380 3230 c0 -5 5 -10 10 -10 6 0 10 5 10 10 0 6 -4 10 -10 10 -5 0
-10 -4 -10 -10z"/>
<path d="M1850 3220 c0 -5 5 -10 10 -10 6 0 10 5 10 10 0 6 -4 10 -10 10 -5 0
-10 -4 -10 -10z"/>
<path d="M1969 3221 c11 -7 11 -9 0 -13 -8 -3 -11 -9 -6 -13 4 -5 12 -4 18 2
6 6 19 9 28 7 9 -3 5 2 -9 10 -14 8 -29 15 -35 15 -5 1 -4 -3 4 -8z"/>
<path d="M2060 3218 c0 -18 18 -34 28 -24 3 4 -2 14 -11 23 -16 16 -17 16 -17
1z"/>
<path d="M2104 3207 c-8 -33 5 -51 29 -41 21 8 21 13 -2 44 l-19 25 -8 -28z"/>
<path d="M2776 3209 c-14 -20 -14 -25 -2 -37 26 -27 49 12 27 47 -7 10 -12 8
-25 -10z"/>
<path d="M3040 3220 c0 -5 4 -10 9 -10 6 0 13 5 16 10 3 6 -1 10 -9 10 -9 0
-16 -4 -16 -10z"/>
<path d="M1750 3210 c0 -5 5 -10 10 -10 6 0 10 5 10 10 0 6 -4 10 -10 10 -5 0
-10 -4 -10 -10z"/>
<path d="M3140 3210 c0 -5 5 -10 11 -10 5 0 7 5 4 10 -3 6 -8 10 -11 10 -2 0
-4 -4 -4 -10z"/>
<path d="M3208 3209 c-17 -10 -14 -39 4 -39 7 0 6 5 -1 14 -9 11 -8 15 6 20
10 4 20 1 25 -8 5 -8 15 -13 24 -9 12 5 12 7 -3 19 -21 16 -32 17 -55 3z"/>
<path d="M1428 3193 c-7 -25 1 -43 18 -43 20 0 29 27 14 45 -16 20 -27 19 -32
-2z"/>
<path d="M3004 3195 c-10 -25 4 -45 31 -45 30 0 33 20 7 43 -23 21 -31 21 -38
2z"/>
<path d="M1855 3170 l-16 -31 28 7 c39 9 43 13 43 35 0 31 -37 24 -55 -11z"/>
<path d="M1737 3183 c10 -3 9 -9 -3 -21 -12 -12 -13 -17 -4 -20 6 -2 16 0 22
6 13 13 3 42 -14 41 -10 0 -10 -2 -1 -6z"/>
<path d="M1801 3174 c0 -11 3 -14 6 -6 3 7 2 16 -1 19 -3 4 -6 -2 -5 -13z"/>
<path d="M2065 3174 c11 -11 29 -26 40 -32 20 -11 19 -11 -2 -12 -12 0 -25 -4
-28 -10 -3 -5 3 -10 14 -10 11 0 23 5 26 10 4 6 10 8 15 5 13 -8 40 6 40 21 0
8 -4 14 -10 14 -5 0 -10 -7 -10 -16 0 -15 -2 -15 -25 0 -14 9 -37 24 -52 33
l-28 17 20 -20z"/>
<path d="M2960 3180 c0 -5 5 -10 11 -10 5 0 7 5 4 10 -3 6 -8 10 -11 10 -2 0
-4 -4 -4 -10z"/>
<path d="M3101 3174 c0 -11 3 -14 6 -6 3 7 2 16 -1 19 -3 4 -6 -2 -5 -13z"/>
<path d="M3111 3150 c-28 -22 -51 -43 -51 -46 0 -4 20 10 45 30 25 21 45 33
45 27 0 -6 7 -11 15 -11 8 0 15 5 15 10 0 6 -6 10 -12 10 -9 0 -8 4 2 10 8 5
10 10 3 10 -6 0 -34 -18 -62 -40z"/>
<path d="M3406 3181 c-4 -7 -5 -15 -2 -18 9 -9 19 4 14 18 -4 11 -6 11 -12 0z"/>
<path d="M1396 3171 c-4 -7 -5 -15 -2 -18 9 -9 19 4 14 18 -4 11 -6 11 -12 0z"/>
<path d="M1490 3170 c0 -5 5 -10 10 -10 6 0 10 5 10 10 0 6 -4 10 -10 10 -5 0
-10 -4 -10 -10z"/>
<path d="M1535 3170 c3 -5 10 -10 16 -10 5 0 9 5 9 10 0 6 -7 10 -16 10 -8 0
-12 -4 -9 -10z"/>
<path d="M1964 3166 c-8 -22 -2 -27 16 -16 12 7 12 12 3 21 -10 10 -14 9 -19
-5z"/>
<path d="M2290 3164 c0 -8 5 -12 10 -9 6 4 8 11 5 16 -9 14 -15 11 -15 -7z"/>
<path d="M2605 3171 c-3 -5 -1 -12 5 -16 5 -3 10 1 10 9 0 18 -6 21 -15 7z"/>
<path d="M2920 3172 c0 -5 7 -16 16 -23 14 -12 16 -11 13 5 -4 20 -29 35 -29
18z"/>
<path d="M3350 3170 c0 -5 4 -10 9 -10 6 0 13 5 16 10 3 6 -1 10 -9 10 -9 0
-16 -4 -16 -10z"/>
<path d="M3500 3164 c0 -8 5 -12 10 -9 6 4 8 11 5 16 -9 14 -15 11 -15 -7z"/>
<path d="M1288 3145 c3 -19 0 -25 -12 -25 -10 0 -14 -5 -10 -11 4 -8 9 -8 17
0 6 6 19 11 29 11 24 0 23 27 -1 40 -27 14 -29 13 -23 -15z"/>
<path d="M1785 3150 c10 -11 20 -20 23 -20 3 0 -3 9 -13 20 -10 11 -20 20 -23
20 -3 0 3 -9 13 -20z"/>
<path d="M3592 3158 c-7 -7 -12 -18 -12 -25 0 -7 -5 -13 -12 -13 -6 0 -9 -2
-6 -5 11 -11 55 14 61 34 6 23 -12 28 -31 9z"/>
<path d="M1346 3151 c-4 -5 7 -15 24 -22 23 -11 28 -18 24 -36 -7 -26 4 -29
31 -10 23 17 13 34 -25 42 -20 4 -27 11 -23 21 6 15 -22 20 -31 5z"/>
<path d="M2013 3148 c-6 -7 -14 -23 -17 -35 -7 -21 -5 -21 26 -12 18 5 34 9
36 9 2 0 2 10 0 22 -3 26 -30 35 -45 16z"/>
<path d="M2857 3154 c-18 -18 -6 -42 25 -48 39 -8 40 -6 25 24 -13 25 -37 37
-50 24z"/>
<path d="M3530 3150 c0 -5 9 -10 21 -10 11 0 17 5 14 10 -3 6 -13 10 -21 10
-8 0 -14 -4 -14 -10z"/>
<path d="M1423 3133 c9 -2 23 -2 30 0 6 3 -1 5 -18 5 -16 0 -22 -2 -12 -5z"/>
<path d="M1880 3110 l0 -34 -32 29 -33 30 30 -32 c22 -24 36 -31 53 -27 27 8
28 25 2 49 -20 18 -20 17 -20 -15z"/>
<path d="M2205 3129 c-10 -15 1 -23 20 -15 9 3 13 10 10 16 -8 13 -22 13 -30
-1z"/>
<path d="M3008 3129 c-10 -6 -18 -18 -18 -28 0 -25 36 -33 52 -13 9 10 9 13 1
9 -7 -5 -13 1 -15 17 -2 20 -6 23 -20 15z"/>
<path d="M1475 3121 c-3 -5 -1 -12 5 -16 12 -7 30 2 30 16 0 12 -27 12 -35 0z"/>
<path d="M1540 3120 c0 -5 5 -10 10 -10 6 0 10 5 10 10 0 6 -4 10 -10 10 -5 0
-10 -4 -10 -10z"/>
<path d="M1770 3120 c0 -5 5 -10 11 -10 5 0 7 5 4 10 -3 6 -8 10 -11 10 -2 0
-4 -4 -4 -10z"/>
<path d="M2320 3116 c0 -9 5 -16 10 -16 6 0 10 4 10 9 0 6 -4 13 -10 16 -5 3
-10 -1 -10 -9z"/>
<path d="M2576 3121 c-4 -7 -5 -15 -2 -18 9 -9 19 4 14 18 -4 11 -6 11 -12 0z"/>
<path d="M3350 3120 c0 -5 5 -10 10 -10 6 0 10 5 10 10 0 6 -4 10 -10 10 -5 0
-10 -4 -10 -10z"/>
<path d="M3400 3122 c0 -14 11 -21 26 -15 8 3 11 9 8 14 -7 11 -34 12 -34 1z"/>
<path d="M3528 3123 c7 -3 16 -2 19 1 4 3 -2 6 -13 5 -11 0 -14 -3 -6 -6z"/>
<path d="M1348 3113 c6 -2 12 -12 12 -21 0 -13 3 -13 12 -4 10 10 10 15 -2 22
-8 5 -19 9 -25 9 -5 0 -4 -3 3 -6z"/>
<path d="M1560 3101 c-16 -30 -12 -40 13 -34 32 8 47 22 40 39 -8 20 -41 17
-53 -5z"/>
<path d="M3302 3098 c4 -28 58 -46 58 -19 0 22 -19 41 -43 41 -13 0 -18 -6
-15 -22z"/>
<path d="M3474 3108 c-4 -6 1 -17 11 -25 32 -23 43 -15 29 21 -7 19 -30 21
-40 4z"/>
<path d="M3625 3110 c4 -6 11 -8 16 -5 14 9 11 15 -7 15 -8 0 -12 -5 -9 -10z"/>
<path d="M1230 3096 c0 -9 5 -16 10 -16 6 0 10 4 10 9 0 6 -4 13 -10 16 -5 3
-10 -1 -10 -9z"/>
<path d="M1315 3101 c6 -10 4 -13 -6 -9 -12 5 -14 -2 -11 -28 4 -29 6 -32 23
-21 24 15 24 40 2 58 -14 12 -16 12 -8 0z"/>
<path d="M1645 3090 c-4 -12 -5 -24 -2 -27 9 -9 48 18 44 30 -7 21 -35 19 -42
-3z"/>
<path d="M3227 3103 c-12 -12 -8 -20 18 -31 25 -12 30 -6 19 22 -6 16 -26 21
-37 9z"/>
<path d="M3530 3101 c0 -6 5 -13 10 -16 6 -3 10 1 10 9 0 9 -4 16 -10 16 -5 0
-10 -4 -10 -9z"/>
<path d="M3580 3095 c-15 -18 -5 -45 18 -53 14 -4 16 36 3 56 -6 10 -11 10
-21 -3z"/>
<path d="M3665 3101 c-3 -5 -1 -12 5 -16 5 -3 10 1 10 9 0 18 -6 21 -15 7z"/>
<path d="M1191 3083 c1 -10 -3 -31 -9 -46 -16 -38 -16 -38 16 -31 42 10 46 20
28 58 -18 38 -39 49 -35 19z"/>
<path d="M3684 3064 c-18 -38 -14 -48 29 -58 32 -7 36 7 11 42 -12 18 -13 26
-4 37 10 12 9 15 -3 15 -9 0 -24 -16 -33 -36z"/>
<path d="M1935 3081 c-3 -5 -1 -12 5 -16 5 -3 10 1 10 9 0 18 -6 21 -15 7z"/>
<path d="M2960 3080 c0 -5 5 -10 11 -10 5 0 7 5 4 10 -3 6 -8 10 -11 10 -2 0
-4 -4 -4 -10z"/>
<path d="M1698 3063 c-16 -19 -38 -57 -38 -67 0 -4 21 -5 47 -4 57 2 87 26 74
60 -11 30 -61 36 -83 11z"/>
<path d="M1260 3054 c0 -8 5 -12 10 -9 6 3 10 10 10 16 0 5 -4 9 -10 9 -5 0
-10 -7 -10 -16z"/>
<path d="M3630 3060 c0 -5 5 -10 10 -10 6 0 10 5 10 10 0 6 -4 10 -10 10 -5 0
-10 -4 -10 -10z"/>
<path d="M1827 3033 c-10 -9 -8 -43 2 -43 5 0 14 7 21 15 17 21 -4 48 -23 28z"/>
<path d="M3050 3026 c0 -8 9 -20 21 -26 18 -10 20 -9 17 12 -3 26 -38 39 -38
14z"/>
<path d="M1918 2996 c-14 -33 -10 -37 28 -27 36 9 41 44 7 49 -16 2 -26 -4
-35 -22z"/>
<path d="M1996 3005 c-3 -8 -1 -15 4 -15 13 0 22 18 11 24 -5 3 -11 -1 -15 -9z"/>
<path d="M2060 3004 c0 -8 5 -12 10 -9 6 3 10 10 10 16 0 5 -4 9 -10 9 -5 0
-10 -7 -10 -16z"/>
<path d="M2830 3010 c0 -5 5 -10 10 -10 6 0 10 5 10 10 0 6 -4 10 -10 10 -5 0
-10 -4 -10 -10z"/>
<path d="M2892 3008 c2 -6 10 -14 16 -16 7 -2 10 2 6 12 -7 18 -28 22 -22 4z"/>
</g>
</svg>
